<svg xmlns="http://www.w3.org/2000/svg" width="1042.9613037109375" height="1005.7039794921875" viewBox="-427.2809143066406 -402.87353515625 1042.9613037109375 1005.7039794921875"><title>Neo4j Graph Visualization</title><desc>Created using Neo4j (http://www.neo4j.com/)</desc><g class="layer relationships"><g class="relationship" transform="translate(220.93107205309775 573.830423422497) rotate(221.1316023726605)"><path class="outline" fill="#A5ABB6" stroke="none" d="M 21.40063509461097,12.933012701892217 L 21.90063509461097,12.06698729810778 A 54.88741878505981 54.88741878505981 0 0 0 23.046719600659017,12.710506915890853 L 22.567600242004826,13.588256675311378 A 55.88741878505981 55.88741878505981 0 0 1 21.40063509461097,12.933012701892217 Z M 72.9080863273767,15.21004210671775 L 72.48645758959475,14.303273554397812 A 54.88741878505981 54.88741878505981 0 0 0 73.67158622276229,13.734857055410057 L 72.34192403746876,11.045619529083977 L 80.1680841484054,11.08051821077948 L 75.444469136487,17.320507090511494 L 74.11480695119347,14.631269564185416 A 55.88741878505981 55.88741878505981 0 0 1 72.9080863273767,15.21004210671775"/><text text-anchor="middle" pointer-events="none" font-size="8px" fill="#000000" x="47.56089071032249" y="22.891786354729263" transform="rotate(180 47.56089071032249 19.891786354729263)" font-family="sans-serif">PRODUCED</text></g><g class="relationship" transform="translate(220.93107205309775 573.830423422497) rotate(221.1316023726605)"><path class="outline" fill="#A5ABB6" stroke="none" d="M 25 0.5 L 25.90052655889469 0.5 L 25.90052655889469 -0.5 L 25 -0.5 Z M 69.67787030889468 0.5 L 70.57839686778938 0.5 L 70.57839686778938 3.5 L 77.57839686778938 0 L 70.57839686778938 -3.5 L 70.57839686778938 -0.5 L 69.67787030889468 -0.5 Z"/><text text-anchor="middle" pointer-events="none" font-size="8px" fill="#000000" x="47.78919843389469" y="3" transform="rotate(180 47.78919843389469 0)" font-family="sans-serif">DIRECT…</text></g><g class="relationship" transform="translate(220.93107205309775 573.830423422497) rotate(221.1316023726605)"><path class="outline" fill="#A5ABB6" stroke="none" d="M 21.40063509461097,-12.933012701892217 L 21.90063509461097,-12.06698729810778 A 54.88741878505981 54.88741878505981 0 0 1 30.25862235729422,-15.995345827488237 L 29.910897458723444,-16.932942433131593 A 55.88741878505981 55.88741878505981 0 0 0 21.40063509461097,-12.933012701892217 Z M 65.3647328767907,-18.075134697047957 L 65.0780782282505,-17.11710071410669 A 54.88741878505981 54.88741878505981 0 0 1 73.67158622276229,-13.734857055410057 L 72.34192403746876,-11.045619529083977 L 80.1680841484054,-11.08051821077948 L 75.444469136487,-17.320507090511494 L 74.11480695119347,-14.631269564185416 A 55.88741878505981 55.88741878505981 0 0 0 65.3647328767907,-18.075134697047957"/><text text-anchor="middle" pointer-events="none" font-size="8px" fill="#000000" x="47.56089071032249" y="-16.891786354729263" transform="rotate(180 47.56089071032249 -19.891786354729263)" font-family="sans-serif">WROTE</text></g><g class="relationship" transform="translate(173.6024302570529 322.30724842298713) rotate(275.25267785528575)"><path class="outline" fill="#A5ABB6" stroke="none" d="M 24.018736134675446,6.953439040707552 L 24.277555179777966,5.987513214418485 A 106.5706680321076 106.5706680321076 0 0 0 27.063014349640156,6.6937658180184485 L 26.830332507403092,7.666318726755634 A 107.5706680321076 107.5706680321076 0 0 1 24.018736134675446,6.953439040707552 Z M 73.55848007338817,8.40766944722057 L 73.35676703437342,7.428224783193329 A 106.5706680321076 106.5706680321076 0 0 0 76.16322835176176,6.810689034378859 L 75.47908640863382,3.88973888046436 L 83.09280236808358,5.701182859399434 L 77.07541760926567,10.70528923959819 L 76.39127566613773,7.784339085683692 A 107.5706680321076 107.5706680321076 0 0 1 73.55848007338817,8.40766944722057"/><text text-anchor="middle" pointer-events="none" font-size="8px" fill="#000000" x="50.16159146990328" y="13.105348149362527" font-family="sans-serif">DIRECTED</text></g><g class="relationship" transform="translate(173.6024302570529 322.30724842298713) rotate(275.25267785528575)"><path class="outline" fill="#A5ABB6" stroke="none" d="M 24.018736134675446,-6.953439040707552 L 24.277555179777966,-5.987513214418485 A 106.5706680321076 106.5706680321076 0 0 1 32.47478787425819,-7.840890828730039 L 32.29288711113557,-8.824207721890843 A 107.5706680321076 107.5706680321076 0 0 0 24.018736134675446,-6.953439040707552 Z M 68.06194367088987,-9.39169043268052 L 67.91132761307875,-8.403098098535935 A 106.5706680321076 106.5706680321076 0 0 1 76.16322835176176,-6.810689034378859 L 75.47908640863382,-3.88973888046436 L 83.09280236808358,-5.701182859399434 L 77.07541760926567,-10.70528923959819 L 76.39127566613773,-7.784339085683692 A 107.5706680321076 107.5706680321076 0 0 0 68.06194367088987,-9.39169043268052"/><text text-anchor="middle" pointer-events="none" font-size="8px" fill="#000000" x="50.161591469903264" y="-7.105348149362527" font-family="sans-serif">WROTE</text></g><g class="relationship" transform="translate(288.8614637508696 232.66920199788868) rotate(189.34290426696816)"><path class="outline" fill="#A5ABB6" stroke="none" d="M 24.018736134675446,6.953439040707552 L 24.277555179777966,5.987513214418485 A 105.38505082482321 105.38505082482321 0 0 0 26.772320186023258,6.623426413147172 L 26.537173995720533,7.595386427338141 A 106.38505082482321 106.38505082482321 0 0 1 24.018736134675446,6.953439040707552 Z M 73.25925567907493,8.340510905939084 L 73.05522285577462,7.361546858072103 A 105.38505082482321 105.38505082482321 0 0 0 75.56899710115968,6.8055099205022485 L 74.88533893017087,3.884446500232117 L 82.49875477695478,5.697151424906723 L 76.48054132914474,10.70026114752909 L 75.79688315815594,7.77919772725896 A 106.38505082482321 106.38505082482321 0 0 1 73.25925567907493,8.340510905939084"/><text text-anchor="middle" pointer-events="none" font-size="8px" fill="#000000" x="49.86477168506354" y="13.064958951471624" transform="rotate(180 49.86477168506354 10.064958951471624)" font-family="sans-serif">DIRECTED</text></g><g class="relationship" transform="translate(288.8614637508696 232.66920199788868) rotate(189.34290426696816)"><path class="outline" fill="#A5ABB6" stroke="none" d="M 24.018736134675446,-6.953439040707552 L 24.277555179777966,-5.987513214418485 A 105.38505082482321 105.38505082482321 0 0 1 32.1812080748207,-7.78262879220155 L 31.997386885990796,-8.765588491546936 A 106.38505082482321 106.38505082482321 0 0 0 24.018736134675446,-6.953439040707552 Z M 67.76450426451031,-9.336003030615373 L 67.61212109848762,-8.347681539038419 A 105.38505082482321 105.38505082482321 0 0 1 75.56899710115968,-6.8055099205022485 L 74.88533893017087,-3.884446500232117 L 82.49875477695478,-5.697151424906723 L 76.48054132914474,-10.70026114752909 L 75.79688315815594,-7.77919772725896 A 106.38505082482321 106.38505082482321 0 0 0 67.76450426451031,-9.336003030615373"/><text text-anchor="middle" pointer-events="none" font-size="8px" fill="#000000" x="49.86477168506352" y="-7.064958951471624" transform="rotate(180 49.86477168506352 -10.064958951471624)" font-family="sans-serif">WROTE</text></g><g class="relationship" transform="translate(373.33717213244745 409.0078519869648) rotate(389.8530258222608)"><path class="outline" fill="#A5ABB6" stroke="none" d="M 21.40063509461097,12.933012701892217 L 21.90063509461097,12.06698729810778 A 54.09455200307383 54.09455200307383 0 0 0 29.888691463441894,15.845482443190939 L 29.53635987131367,16.781357674826218 A 55.09455200307383 55.09455200307383 0 0 1 21.40063509461097,12.933012701892217 Z M 64.97638543869367,17.931187787781838 L 64.68545877244813,16.974442432492744 A 54.09455200307383 54.09455200307383 0 0 0 72.90163989685679,13.721683934856038 L 71.57320322918565,11.031840813038933 L 79.39934662570856,11.070305563926219 L 74.67288878708499,17.308141430612178 L 73.34445211941384,14.618298308795072 A 55.09455200307383 55.09455200307383 0 0 1 64.97638543869367,17.931187787781838"/><text text-anchor="middle" pointer-events="none" font-size="8px" fill="#000000" x="47.177555529458715" y="22.785571558137264" font-family="sans-serif">WROTE</text></g><g class="relationship" transform="translate(373.33717213244745 409.0078519869648) rotate(389.8530258222608)"><path class="outline" fill="#A5ABB6" stroke="none" d="M 25 0.5 L 25.51868111209224 0.5 L 25.51868111209224 -0.5 L 25 -0.5 Z M 69.29602486209224 0.5 L 69.81470597418448 0.5 L 69.81470597418448 3.5 L 76.81470597418448 0 L 69.81470597418448 -3.5 L 69.81470597418448 -0.5 L 69.29602486209224 -0.5 Z"/><text text-anchor="middle" pointer-events="none" font-size="8px" fill="#000000" x="47.40735298709224" y="3" font-family="sans-serif">DIRECT…</text></g><g class="relationship" transform="translate(373.33717213244745 409.0078519869648) rotate(389.8530258222608)"><path class="outline" fill="#A5ABB6" stroke="none" d="M 21.40063509461097,-12.933012701892217 L 21.90063509461097,-12.06698729810778 A 54.09455200307383 54.09455200307383 0 0 1 22.697652682219356,-12.51819286735276 L 22.212386468859517,-13.392559324950149 A 55.09455200307383 55.09455200307383 0 0 0 21.40063509461097,-12.933012701892217 Z M 72.50461984354995,-15.024260303045288 L 72.0770510932661,-14.12027746925876 A 54.09455200307383 54.09455200307383 0 0 1 72.90163989685679,-13.721683934856038 L 71.57320322918565,-11.031840813038933 L 79.39934662570856,-11.070305563926219 L 74.67288878708499,-17.308141430612178 L 73.34445211941384,-14.618298308795072 A 55.09455200307383 55.09455200307383 0 0 0 72.50461984354995,-15.024260303045288"/><text text-anchor="middle" pointer-events="none" font-size="8px" fill="#000000" x="47.17755552945871" y="-16.785571558137264" font-family="sans-serif">PRODUCED</text></g><g class="relationship" transform="translate(586.6804141695035 177.66907156507156) rotate(504.3476024254505)"><path class="outline" fill="#A5ABB6" stroke="none" d="M 21.40063509461097,12.933012701892217 L 21.90063509461097,12.06698729810778 A 55.70393621779059 55.70393621779059 0 0 0 30.640309072493004,16.14850851847671 L 30.297204160547675,17.087805606409482 A 56.70393621779059 56.70393621779059 0 0 1 21.40063509461097,12.933012701892217 Z M 65.7645953732566,18.222217811438824 L 65.4822165255475,17.26291484242097 A 55.70393621779059 55.70393621779059 0 0 0 74.46485234175934,13.74823555331106 L 73.13394554327206,11.059613769991522 L 80.96012096925281,11.090889987394 L 76.23939473974238,17.333064597737113 L 74.9084879412551,14.644442814417575 A 56.70393621779059 56.70393621779059 0 0 1 65.7645953732566,18.222217811438824"/><text text-anchor="middle" pointer-events="none" font-size="8px" fill="#000000" x="47.95585861569842" y="23.001172879435735" transform="rotate(180 47.95585861569842 20.001172879435735)" font-family="sans-serif">WROTE</text></g><g class="relationship" transform="translate(586.6804141695035 177.66907156507156) rotate(504.3476024254505)"><path class="outline" fill="#A5ABB6" stroke="none" d="M 25 0.5 L 26.73733874845783 0.5 L 26.73733874845783 -0.5 L 25 -0.5 Z M 69.62796374845783 0.5 L 71.36530249691566 0.5 L 71.36530249691566 3.5 L 78.36530249691566 0 L 71.36530249691566 -3.5 L 71.36530249691566 -0.5 L 69.62796374845783 -0.5 Z"/><text text-anchor="middle" pointer-events="none" font-size="8px" fill="#000000" x="48.18265124845783" y="3" transform="rotate(180 48.18265124845783 0)" font-family="sans-serif">PRODU…</text></g><g class="relationship" transform="translate(586.6804141695035 177.66907156507156) rotate(504.3476024254505)"><path class="outline" fill="#A5ABB6" stroke="none" d="M 21.40063509461097,-12.933012701892217 L 21.90063509461097,-12.06698729810778 A 55.70393621779059 55.70393621779059 0 0 1 25.567413725444705,-14.005691621191104 L 25.13323992875819,-14.906520747202705 A 56.70393621779059 56.70393621779059 0 0 0 21.40063509461097,-12.933012701892217 Z M 71.0573974237067,-16.375388994532152 L 70.68167757705669,-15.4486557012739 A 55.70393621779059 55.70393621779059 0 0 1 74.46485234175934,-13.74823555331106 L 73.13394554327206,-11.059613769991522 L 80.96012096925281,-11.090889987394 L 76.23939473974238,-17.333064597737113 L 74.9084879412551,-14.644442814417575 A 56.70393621779059 56.70393621779059 0 0 0 71.0573974237067,-16.375388994532152"/><text text-anchor="middle" pointer-events="none" font-size="8px" fill="#000000" x="47.95585861569841" y="-17.001172879435735" transform="rotate(180 47.95585861569841 -20.001172879435735)" font-family="sans-serif">DIRECTED</text></g><g class="relationship" transform="translate(512.7435619223261 4.958993406668437) rotate(189.65325104321073)"><path class="outline" fill="#A5ABB6" stroke="none" d="M 24.018736134675446,-6.953439040707552 L 24.277555179777966,-5.987513214418485 A 103.78796308951222 103.78796308951222 0 0 1 26.38120944746303,-6.52765924440223 L 26.142659171542064,-7.498789393176338 A 104.78796308951222 104.78796308951222 0 0 0 24.018736134675446,-6.953439040707552 Z M 72.85619778959284,-8.24905173477913 L 72.64895699141738,-7.2707617718481 A 103.78796308951222 103.78796308951222 0 0 1 74.76887225906746,-6.7984501484035835 L 74.08587353139379,-3.8772324677101118 L 81.69887996863118,-5.691656063947262 L 75.67953722929903,-10.693407055994879 L 74.99653850162535,-7.772189375301407 A 104.78796308951222 104.78796308951222 0 0 0 72.85619778959284,-8.24905173477913"/><text text-anchor="middle" pointer-events="none" font-size="8px" fill="#000000" x="49.46511218168606" y="-7.010554197487551" transform="rotate(180 49.46511218168606 -10.01055419748755)" font-family="sans-serif">DIRECTED</text></g><g class="relationship" transform="translate(512.7435619223261 4.958993406668437) rotate(189.65325104321073)"><path class="outline" fill="#A5ABB6" stroke="none" d="M 24.018736134675446,6.953439040707552 L 24.277555179777966,5.987513214418485 A 103.78796308951222 103.78796308951222 0 0 0 31.786063802289682,7.703543755244553 L 31.599589453036295,8.6860035849936 A 104.78796308951222 104.78796308951222 0 0 1 24.018736134675446,6.953439040707552 Z M 67.36395637994171,9.260412171247708 L 67.20912848538343,8.272470713940322 A 103.78796308951222 103.78796308951222 0 0 0 74.76887225906746,6.7984501484035835 L 74.08587353139379,3.8772324677101118 L 81.69887996863118,5.691656063947262 L 75.67953722929903,10.693407055994879 L 74.99653850162535,7.772189375301407 A 104.78796308951222 104.78796308951222 0 0 1 67.36395637994171,9.260412171247708"/><text text-anchor="middle" pointer-events="none" font-size="8px" fill="#000000" x="49.46511218168609" y="13.01055419748755" transform="rotate(180 49.46511218168609 10.01055419748755)" font-family="sans-serif">WROTE</text></g><g class="relationship" transform="translate(326.74396128683503 51.45410971845197) rotate(321.7240046952047)"><path class="outline" fill="#A5ABB6" stroke="none" d="M 24.018736134675446,-6.953439040707552 L 24.277555179777966,-5.987513214418485 A 99.22757502539179 99.22757502539179 0 0 1 30.659915593313123,-7.473641296240189 L 30.465416979420393,-8.454544089178313 A 100.22757502539179 100.22757502539179 0 0 0 24.018736134675446,-6.953439040707552 Z M 66.22095879687596,-9.040647037901138 L 66.05871385183895,-8.053896523429557 A 99.22757502539179 99.22757502539179 0 0 1 72.48635333625236,-6.7777492818272025 L 71.80528826130322,-3.856080176044601 L 79.41709209556996,-5.675542291242943 L 73.39444010285123,-10.673308089537336 L 72.71337502790209,-7.751638983754735 A 100.22757502539179 100.22757502539179 0 0 0 66.22095879687596,-9.040647037901138"/><text text-anchor="middle" pointer-events="none" font-size="8px" fill="#000000" x="48.32503184331525" y="-6.855215345487437" font-family="sans-serif">WROTE</text></g><g class="relationship" transform="translate(326.74396128683503 51.45410971845197) rotate(321.7240046952047)"><path class="outline" fill="#A5ABB6" stroke="none" d="M 24.018736134675446,6.953439040707552 L 24.277555179777966,5.987513214418485 A 99.22757502539179 99.22757502539179 0 0 0 25.267592039376172,6.247327403313761 L 25.01875043108338,7.215871596410935 A 100.22757502539179 100.22757502539179 0 0 1 24.018736134675446,6.953439040707552 Z M 71.70529673667467,7.98115499206159 L 71.48833293868319,7.0049753414024 A 99.22757502539179 99.22757502539179 0 0 0 72.48635333625236,6.7777492818272025 L 71.80528826130322,3.856080176044601 L 79.41709209556996,5.675542291242943 L 73.39444010285123,10.673308089537336 L 72.71337502790209,7.751638983754735 A 100.22757502539179 100.22757502539179 0 0 1 71.70529673667467,7.98115499206159"/><text text-anchor="middle" pointer-events="none" font-size="8px" fill="#000000" x="48.32503184331529" y="12.855215345487437" font-family="sans-serif">DIRECTED</text></g><g class="relationship" transform="translate(516.1068948637075 -177.4761368143824) rotate(197.87818303695485)"><path class="outline" fill="#A5ABB6" stroke="none" d="M 21.40063509461097,12.933012701892217 L 21.90063509461097,12.06698729810778 A 57.77309061308779 57.77309061308779 0 0 0 26.507216336956073,14.457427716466363 L 26.08695209617304,15.364829484107936 A 58.77309061308779 58.77309061308779 0 0 1 21.40063509461097,12.933012701892217 Z M 72.0915953212069,16.809912805415877 L 71.72910945058453,15.877923538525351 A 57.77309061308779 57.77309061308779 0 0 0 76.4766365699591,13.781311417304247 L 75.14265274308462,11.094215001163334 L 82.96885884543364,11.116531890620621 L 78.25528167245841,17.36410663882546 L 76.92129784558394,14.67701022268455 A 58.77309061308779 58.77309061308779 0 0 1 72.0915953212069,16.809912805415877"/><text text-anchor="middle" pointer-events="none" font-size="8px" fill="#000000" x="48.95762686789485" y="23.278386190870528" transform="rotate(180 48.95762686789485 20.278386190870528)" font-family="sans-serif">DIRECTED</text></g><g class="relationship" transform="translate(516.1068948637075 -177.4761368143824) rotate(197.87818303695485)"><path class="outline" fill="#A5ABB6" stroke="none" d="M 25 0.5 L 31.29394573997061 0.5 L 31.29394573997061 -0.5 L 25 -0.5 Z M 67.06738323997061 0.5 L 73.36132897994122 0.5 L 73.36132897994122 3.5 L 80.36132897994122 0 L 73.36132897994122 -3.5 L 73.36132897994122 -0.5 L 67.06738323997061 -0.5 Z"/><text text-anchor="middle" pointer-events="none" font-size="8px" fill="#000000" x="49.18066448997061" y="3" transform="rotate(180 49.18066448997061 0)" font-family="sans-serif">WROTE</text></g><g class="relationship" transform="translate(516.1068948637075 -177.4761368143824) rotate(197.87818303695485)"><path class="outline" fill="#A5ABB6" stroke="none" d="M 21.40063509461097,-12.933012701892217 L 21.90063509461097,-12.06698729810778 A 57.77309061308779 57.77309061308779 0 0 1 24.32939370611131,-13.392717880793619 L 23.8714333232709,-14.281690483154712 A 58.77309061308779 58.77309061308779 0 0 0 21.40063509461097,-12.933012701892217 Z M 74.37072569154317,-15.867958303606656 L 73.96946135365694,-14.951996005724958 A 57.77309061308779 57.77309061308779 0 0 1 76.4766365699591,-13.781311417304247 L 75.14265274308462,-11.094215001163334 L 82.96885884543364,-11.116531890620621 L 78.25528167245841,-17.36410663882546 L 76.92129784558394,-14.67701022268455 A 58.77309061308779 58.77309061308779 0 0 0 74.37072569154317,-15.867958303606656"/><text text-anchor="middle" pointer-events="none" font-size="8px" fill="#000000" x="48.95762686789486" y="-17.278386190870528" transform="rotate(180 48.95762686789486 -20.278386190870528)" font-family="sans-serif">PRODUCED</text></g><g class="relationship" transform="translate(218.6419742694168 -373.87352440890436) rotate(411.1250575587303)"><path class="outline" fill="#A5ABB6" stroke="none" d="M 21.40063509461097,12.933012701892217 L 21.90063509461097,12.06698729810778 A 55.6757744178683 55.6757744178683 0 0 0 30.627132814391775,16.143245186159383 L 30.28387060225414,17.082484800804323 A 56.6757744178683 56.6757744178683 0 0 1 21.40063509461097,12.933012701892217 Z M 65.75080508731041,18.21716389863945 L 65.4682807998484,17.25790375300945 A 55.6757744178683 55.6757744178683 0 0 0 74.43748660580177,13.74777725476258 L 73.10662244303963,11.059134366561278 L 80.93279737206515,11.090534689684478 L 76.21197215615128,17.332634439030983 L 74.88110799338914,14.64399155082968 A 56.6757744178683 56.6757744178683 0 0 1 65.75080508731041,18.21716389863945"/><text text-anchor="middle" pointer-events="none" font-size="8px" fill="#000000" x="47.94223281708665" y="22.99740006682218" font-family="sans-serif">WROTE</text></g><g class="relationship" transform="translate(218.6419742694168 -373.87352440890436) rotate(411.1250575587303)"><path class="outline" fill="#A5ABB6" stroke="none" d="M 25 0.5 L 26.280405511871336 0.5 L 26.280405511871336 -0.5 L 25 -0.5 Z M 70.05774926187134 0.5 L 71.33815477374267 0.5 L 71.33815477374267 3.5 L 78.33815477374267 0 L 71.33815477374267 -3.5 L 71.33815477374267 -0.5 L 70.05774926187134 -0.5 Z"/><text text-anchor="middle" pointer-events="none" font-size="8px" fill="#000000" x="48.169077386871336" y="3" font-family="sans-serif">DIRECT…</text></g><g class="relationship" transform="translate(218.6419742694168 -373.87352440890436) rotate(411.1250575587303)"><path class="outline" fill="#A5ABB6" stroke="none" d="M 21.40063509461097,-12.933012701892217 L 21.90063509461097,-12.06698729810778 A 55.6757744178683 55.6757744178683 0 0 1 23.395298424030926,-12.89957666077207 L 22.922144271170865,-13.780556312995252 A 56.6757744178683 56.6757744178683 0 0 0 21.40063509461097,-12.933012701892217 Z M 73.3085354586385,-15.392547473941313 L 72.89266089146784,-14.48312549027223 A 55.6757744178683 55.6757744178683 0 0 1 74.43748660580177,-13.74777725476258 L 73.10662244303963,-11.059134366561278 L 80.93279737206515,-11.090534689684478 L 76.21197215615128,-17.332634439030983 L 74.88110799338914,-14.64399155082968 A 56.6757744178683 56.6757744178683 0 0 0 73.3085354586385,-15.392547473941313"/><text text-anchor="middle" pointer-events="none" font-size="8px" fill="#000000" x="47.94223281708665" y="-16.99740006682218" font-family="sans-serif">PRODUCED</text></g><g class="relationship" transform="translate(25.389921386942625 -19.831238486746404) rotate(366.1838520449935)"><path class="outline" fill="#A5ABB6" stroke="none" d="M 24.018736134675446,-6.953439040707552 L 24.277555179777966,-5.987513214418485 A 104.44477225272551 104.44477225272551 0 0 1 31.948522960895477,-7.736153251106103 L 31.76314912148076,-8.718821323071737 A 105.44477225272551 105.44477225272551 0 0 0 24.018736134675446,-6.953439040707552 Z M 67.52866697943688,-9.29158108101511 L 67.37485361123703,-8.303481163110533 A 104.44477225272551 104.44477225272551 0 0 1 75.09787997681845,-6.801365177780477 L 74.41460896008206,-3.8802111733349682 L 82.02778448998069,-5.69392513946984 L 76.00890799913361,-10.696237183707822 L 75.32563698239723,-7.775083179262314 A 105.44477225272551 105.44477225272551 0 0 0 67.52866697943688,-9.29158108101511"/><text text-anchor="middle" pointer-events="none" font-size="8px" fill="#000000" x="49.62944972189225" y="-7.032928161027769" font-family="sans-serif">WROTE</text></g><g class="relationship" transform="translate(25.389921386942625 -19.831238486746404) rotate(366.1838520449935)"><path class="outline" fill="#A5ABB6" stroke="none" d="M 24.018736134675446,6.953439040707552 L 24.277555179777966,5.987513214418485 A 104.44477225272551 104.44477225272551 0 0 0 26.541988922116246,6.567187881972799 L 26.304850557563817,7.538663767446749 A 105.44477225272551 105.44477225272551 0 0 1 24.018736134675446,6.953439040707552 Z M 73.02195571902658,8.286805537694903 L 72.81604599154565,7.308234546847174 A 104.44477225272551 104.44477225272551 0 0 0 75.09787997681845,6.801365177780477 L 74.41460896008206,3.8802111733349682 L 82.02778448998069,5.69392513946984 L 76.00890799913361,10.696237183707822 L 75.32563698239723,7.775083179262314 A 105.44477225272551 105.44477225272551 0 0 1 73.02195571902658,8.286805537694903"/><text text-anchor="middle" pointer-events="none" font-size="8px" fill="#000000" x="49.62944972189229" y="13.032928161027769" font-family="sans-serif">DIRECTED</text></g><g class="relationship" transform="translate(180.22870107146784 -101.65982000297055) rotate(477.75310036994046)"><path class="outline" fill="#A5ABB6" stroke="none" d="M 24.018736134675446,-6.953439040707552 L 24.277555179777966,-5.987513214418485 A 102.52919113619177 102.52919113619177 0 0 1 31.47489364623631,-7.640705328823842 L 31.28627254560892,-8.622755266656995 A 103.52919113619177 103.52919113619177 0 0 0 24.018736134675446,-6.953439040707552 Z M 67.04835321947716,-9.200348498474568 L 66.89154439564176,-8.212719523217487 A 102.52919113619177 102.52919113619177 0 0 1 74.13851639547447,-6.792817413375481 L 73.45604381535694,-3.871476766106197 L 81.06872333578906,-5.68727150097945 L 75.04847983563118,-10.687938276401193 L 74.36600725551365,-7.766597629131908 A 103.52919113619177 103.52919113619177 0 0 0 67.04835321947716,-9.200348498474568"/><text text-anchor="middle" pointer-events="none" font-size="8px" fill="#000000" x="49.15025543411288" y="-6.967675488672214" transform="rotate(180 49.15025543411288 -9.967675488672214)" font-family="sans-serif">WROTE</text></g><g class="relationship" transform="translate(180.22870107146784 -101.65982000297055) rotate(477.75310036994046)"><path class="outline" fill="#A5ABB6" stroke="none" d="M 24.018736134675446,6.953439040707552 L 24.277555179777966,5.987513214418485 A 102.52919113619177 102.52919113619177 0 0 0 26.073342801718155,6.451325689522676 L 25.832038647760683,7.42177522725396 A 103.52919113619177 103.52919113619177 0 0 1 24.018736134675446,6.953439040707552 Z M 72.53852626583625,8.176131534880213 L 72.32868724842834,7.19839558546785 A 102.52919113619177 102.52919113619177 0 0 0 74.13851639547447,6.792817413375481 L 73.45604381535694,3.871476766106197 L 81.06872333578906,5.68727150097945 L 75.04847983563118,10.687938276401193 L 74.36600725551365,7.766597629131908 A 103.52919113619177 103.52919113619177 0 0 1 72.53852626583625,8.176131534880213"/><text text-anchor="middle" pointer-events="none" font-size="8px" fill="#000000" x="49.15025543411293" y="12.967675488672228" transform="rotate(180 49.15025543411293 9.967675488672228)" font-family="sans-serif">DIRECTED</text></g><g class="relationship" transform="translate(34.62068059467616 -237.13831088752704) rotate(278.651441789837)"><path class="outline" fill="#A5ABB6" stroke="none" d="M 21.40063509461097,12.933012701892217 L 21.90063509461097,12.06698729810778 A 58.39068062154563 58.39068062154563 0 0 0 31.901025710656942,16.644668364766616 L 31.572292606497097,17.58909122886375 A 59.39068062154563 59.39068062154563 0 0 1 21.40063509461097,12.933012701892217 Z M 67.07999435144067,18.6985109217931 L 66.81086089853564,17.735408027743134 A 58.39068062154563 58.39068062154563 0 0 0 77.07752099698591,13.790960430875472 L 75.7426395408166,11.104309821291993 L 83.56885266204225,11.12401213474431 L 78.857362938545,17.373161243653445 L 77.52248148237568,14.686510634069965 A 59.39068062154563 59.39068062154563 0 0 1 67.07999435144067,18.6985109217931"/><text text-anchor="middle" pointer-events="none" font-size="8px" fill="#000000" x="49.25686415349509" y="23.361131127870713" font-family="sans-serif">WROTE</text></g><g class="relationship" transform="translate(34.62068059467616 -237.13831088752704) rotate(278.651441789837)"><path class="outline" fill="#A5ABB6" stroke="none" d="M 25 0.5 L 26.033491370952284 0.5 L 26.033491370952284 -0.5 L 25 -0.5 Z M 72.92411637095228 0.5 L 73.95760774190457 0.5 L 73.95760774190457 3.5 L 80.95760774190457 0 L 73.95760774190457 -3.5 L 73.95760774190457 -0.5 L 72.92411637095228 -0.5 Z"/><text text-anchor="middle" pointer-events="none" font-size="8px" fill="#000000" x="49.478803870952284" y="3" font-family="sans-serif">DIRECTED</text></g><g class="relationship" transform="translate(34.62068059467616 -237.13831088752704) rotate(278.651441789837)"><path class="outline" fill="#A5ABB6" stroke="none" d="M 21.40063509461097,-12.933012701892217 L 21.90063509461097,-12.06698729810778 A 58.39068062154563 58.39068062154563 0 0 1 24.60619587591081,-13.535346223434154 L 24.15253136562424,-14.426518772442734 A 59.39068062154563 59.39068062154563 0 0 0 21.40063509461097,-12.933012701892217 Z M 74.68271624706486,-16.00530814601334 L 74.28557075900449,-15.087552480646302 A 58.39068062154563 58.39068062154563 0 0 1 77.07752099698591,-13.790960430875472 L 75.7426395408166,-11.104309821291993 L 83.56885266204225,-11.12401213474431 L 78.857362938545,-17.373161243653445 L 77.52248148237568,-14.686510634069965 A 59.39068062154563 59.39068062154563 0 0 0 74.68271624706486,-16.00530814601334"/><text text-anchor="middle" pointer-events="none" font-size="8px" fill="#000000" x="49.256864153495066" y="-17.361131127870713" font-family="sans-serif">PRODUCED</text></g><g class="relationship" transform="translate(-114.73531092428308 -313.75224661378934) rotate(512.5561719891409)"><path class="outline" fill="#A5ABB6" stroke="none" d="M 21.40063509461097,12.933012701892217 L 21.90063509461097,12.06698729810778 A 54.77746375637015 54.77746375637015 0 0 0 25.149087240752607,13.799619109373417 L 24.7083899525501,14.697274889821003 A 55.77746375637015 55.77746375637015 0 0 1 21.40063509461097,12.933012701892217 Z M 70.59340264705955,16.176964169646297 L 70.21145563406309,15.25277994598573 A 54.77746375637015 54.77746375637015 0 0 0 73.56478948027573,13.73304100293447 L 72.23529624476663,11.043719947958785 L 80.06145414780386,11.07911029590918 L 75.3374471276212,17.31880240956872 L 74.0079538921121,14.629481354593032 A 55.77746375637015 55.77746375637015 0 0 1 70.59340264705955,16.176964169646297"/><text text-anchor="middle" pointer-events="none" font-size="8px" fill="#000000" x="47.50771824695389" y="22.8770562530813" transform="rotate(180 47.50771824695389 19.8770562530813)" font-family="sans-serif">DIRECTED</text></g><g class="relationship" transform="translate(-114.73531092428308 -313.75224661378934) rotate(512.5561719891409)"><path class="outline" fill="#A5ABB6" stroke="none" d="M 25 0.5 L 29.84951271963395 0.5 L 29.84951271963395 -0.5 L 25 -0.5 Z M 65.62295021963395 0.5 L 70.4724629392679 0.5 L 70.4724629392679 3.5 L 77.4724629392679 0 L 70.4724629392679 -3.5 L 70.4724629392679 -0.5 L 65.62295021963395 -0.5 Z"/><text text-anchor="middle" pointer-events="none" font-size="8px" fill="#000000" x="47.73623146963395" y="3" transform="rotate(180 47.73623146963395 0)" font-family="sans-serif">WROTE</text></g><g class="relationship" transform="translate(-114.73531092428308 -313.75224661378934) rotate(512.5561719891409)"><path class="outline" fill="#A5ABB6" stroke="none" d="M 21.40063509461097,-12.933012701892217 L 21.90063509461097,-12.06698729810778 A 54.77746375637015 54.77746375637015 0 0 1 22.998218959444152,-12.683968110754641 L 22.51825610226834,-13.561256920515504 A 55.77746375637015 55.77746375637015 0 0 0 21.40063509461097,-12.933012701892217 Z M 72.85217808347066,-15.184413598339844 L 72.42973486852647,-14.278024206219875 A 54.77746375637015 54.77746375637015 0 0 1 73.56478948027573,-13.73304100293447 L 72.23529624476663,-11.043719947958785 L 80.06145414780386,-11.07911029590918 L 75.3374471276212,-17.31880240956872 L 74.0079538921121,-14.629481354593032 A 55.77746375637015 55.77746375637015 0 0 0 72.85217808347066,-15.184413598339844"/><text text-anchor="middle" pointer-events="none" font-size="8px" fill="#000000" x="47.50771824695389" y="-16.8770562530813" transform="rotate(180 47.50771824695389 -19.8770562530813)" font-family="sans-serif">PRODUCED</text></g><g class="relationship" transform="translate(-238.83837567462479 -122.29572754153452) rotate(518.5553449124932)"><path class="outline" fill="#A5ABB6" stroke="none" d="M 24.018736134675446,-6.953439040707552 L 24.277555179777966,-5.987513214418485 A 108.0382255250926 108.0382255250926 0 0 1 32.838454939146615,-7.9124991721715645 L 32.65887543836057,-8.896242636138382 A 109.0382255250926 109.0382255250926 0 0 0 24.018736134675446,-6.953439040707552 Z M 68.43021817646155,-9.46013495278487 L 68.28173527008866,-8.47121997842406 A 108.0382255250926 108.0382255250926 0 0 1 76.89905647587564,-6.817028071842809 L 76.2143224159277,-3.896216666231824 L 83.82840543229258,-5.706117166232792 L 77.81203522247289,-10.711443279324122 L 77.12730116252494,-7.790631873713138 A 109.0382255250926 109.0382255250926 0 0 0 68.43021817646155,-9.46013495278487"/><text text-anchor="middle" pointer-events="none" font-size="8px" fill="#000000" x="50.52914313923617" y="-7.155343257187923" transform="rotate(180 50.52914313923617 -10.155343257187923)" font-family="sans-serif">WROTE</text></g><g class="relationship" transform="translate(-238.83837567462479 -122.29572754153452) rotate(518.5553449124932)"><path class="outline" fill="#A5ABB6" stroke="none" d="M 24.018736134675446,6.953439040707552 L 24.277555179777966,5.987513214418485 A 108.0382255250926 108.0382255250926 0 0 0 27.423231488411833,6.779975004645195 L 27.19352877036249,7.753235843948175 A 109.0382255250926 109.0382255250926 0 0 1 24.018736134675446,6.953439040707552 Z M 73.9288765800535,8.489962551095658 L 73.72996495130263,7.509945120665122 A 108.0382255250926 108.0382255250926 0 0 0 76.89905647587564,6.817028071842809 L 76.2143224159277,3.896216666231824 L 83.82840543229258,5.706117166232792 L 77.81203522247289,10.711443279324122 L 77.12730116252494,7.790631873713138 A 109.0382255250926 109.0382255250926 0 0 1 73.9288765800535,8.489962551095658"/><text text-anchor="middle" pointer-events="none" font-size="8px" fill="#000000" x="50.52914313923621" y="13.155343257187923" transform="rotate(180 50.52914313923621 10.155343257187923)" font-family="sans-serif">DIRECTED</text></g><g class="relationship" transform="translate(-259.5835173357946 -8.595489276517835) rotate(222.8512732432559)"><path class="outline" fill="#A5ABB6" stroke="none" d="M 24.018736134675446,-6.953439040707552 L 24.277555179777966,-5.987513214418485 A 109.76627310033601 109.76627310033601 0 0 1 33.26704842310458,-7.996124445960021 L 33.090126057095006,-8.980349255851323 A 110.76627310033601 110.76627310033601 0 0 0 24.018736134675446,-6.953439040707552 Z M 68.86400839746464,-9.540067855055028 L 68.71796347985023,-8.550789895106973 A 109.76627310033601 109.76627310033601 0 0 1 77.76589471482616,-6.824392426840569 L 77.08047276767215,-3.903742370027939 L 84.69498183858128,-5.711849559616671 L 78.67979064436483,-10.718592502590742 L 77.99436869721082,-7.797942445778111 A 110.76627310033601 110.76627310033601 0 0 0 68.86400839746464,-9.540067855055028"/><text text-anchor="middle" pointer-events="none" font-size="8px" fill="#000000" x="50.962140842018215" y="-7.214214284181395" transform="rotate(180 50.962140842018215 -10.214214284181395)" font-family="sans-serif">WROTE</text></g><g class="relationship" transform="translate(-259.5835173357946 -8.595489276517835) rotate(222.8512732432559)"><path class="outline" fill="#A5ABB6" stroke="none" d="M 24.018736134675446,6.953439040707552 L 24.277555179777966,5.987513214418485 A 109.76627310033601 109.76627310033601 0 0 0 27.847926875077754,6.88031726791715 L 27.62163486760214,7.854376777060523 A 110.76627310033601 110.76627310033601 0 0 1 24.018736134675446,6.953439040707552 Z M 74.36504822928015,8.585724792349126 L 74.1693398204437,7.60506265954767 A 109.76627310033601 109.76627310033601 0 0 0 77.76589471482616,6.824392426840569 L 77.08047276767215,3.903742370027939 L 84.69498183858128,5.711849559616671 L 78.67979064436483,10.718592502590742 L 77.99436869721082,7.797942445778111 A 110.76627310033601 110.76627310033601 0 0 1 74.36504822928015,8.585724792349126"/><text text-anchor="middle" pointer-events="none" font-size="8px" fill="#000000" x="50.96214084201822" y="13.214214284181395" transform="rotate(180 50.96214084201822 10.214214284181395)" font-family="sans-serif">DIRECTED</text></g><g class="relationship" transform="translate(-398.28092143190315 184.31759666474196) rotate(328.7362862845075)"><path class="outline" fill="#A5ABB6" stroke="none" d="M 21.40063509461097,12.933012701892217 L 21.90063509461097,12.06698729810778 A 56.981125474363 56.981125474363 0 0 0 23.975566708365914,13.20813217578283 L 23.51198107534237,14.094184296627965 A 57.981125474363 57.981125474363 0 0 1 21.40063509461097,12.933012701892217 Z M 73.97013968518601,15.69010704084721 L 73.56347386660303,14.77653005339829 A 56.981125474363 56.981125474363 0 0 0 75.70637180002947,13.7687893722108 L 74.37355288372217,11.081114961808115 L 82.19974857702029,11.10682430256087 L 77.4834636884392,17.352355252747714 L 76.1506447721319,14.664680842345028 A 57.981125474363 57.981125474363 0 0 1 73.97013968518601,15.69010704084721"/><text text-anchor="middle" pointer-events="none" font-size="8px" fill="#000000" x="48.5740569032717" y="23.172280914008887" font-family="sans-serif">PRODUCED</text></g><g class="relationship" transform="translate(-398.28092143190315 184.31759666474196) rotate(328.7362862845075)"><path class="outline" fill="#A5ABB6" stroke="none" d="M 25 0.5 L 25.353205165187994 0.5 L 25.353205165187994 -0.5 L 25 -0.5 Z M 72.243830165188 0.5 L 72.59703533037599 0.5 L 72.59703533037599 3.5 L 79.59703533037599 0 L 72.59703533037599 -3.5 L 72.59703533037599 -0.5 L 72.243830165188 -0.5 Z"/><text text-anchor="middle" pointer-events="none" font-size="8px" fill="#000000" x="48.798517665187994" y="3" font-family="sans-serif">DIRECTED</text></g><g class="relationship" transform="translate(-398.28092143190315 184.31759666474196) rotate(328.7362862845075)"><path class="outline" fill="#A5ABB6" stroke="none" d="M 21.40063509461097,-12.933012701892217 L 21.90063509461097,-12.06698729810778 A 56.981125474363 56.981125474363 0 0 1 31.23873180561185,-16.38581195826921 L 30.90261232979002,-17.32763131354561 A 57.981125474363 57.981125474363 0 0 0 21.40063509461097,-12.933012701892217 Z M 66.38994576553378,-18.45004727405884 L 66.11401548989924,-17.488869619830318 A 56.981125474363 56.981125474363 0 0 1 75.70637180002947,-13.7687893722108 L 74.37355288372217,-11.081114961808115 L 82.19974857702029,-11.10682430256087 L 77.4834636884392,-17.352355252747714 L 76.1506447721319,-14.664680842345028 A 57.981125474363 57.981125474363 0 0 0 66.38994576553378,-18.45004727405884"/><text text-anchor="middle" pointer-events="none" font-size="8px" fill="#000000" x="48.57405690327168" y="-17.17228091400888" font-family="sans-serif">WROTE</text></g><g class="relationship" transform="translate(-258.0825124254653 326.71075675791735) rotate(313.62564405645935)"><path class="outline" fill="#A5ABB6" stroke="none" d="M 21.40063509461097,12.933012701892217 L 21.90063509461097,12.06698729810778 A 59.35561150812919 59.35561150812919 0 0 0 27.230703849981712,14.795546629375494 L 26.820502752224357,15.707541727716851 A 60.35561150812919 60.35561150812919 0 0 1 21.40063509461097,12.933012701892217 Z M 72.88089369896821,17.134798796863244 L 72.5279446969119,16.19915623586708 A 59.35561150812919 59.35561150812919 0 0 0 78.0167233038408,13.80583670739896 L 76.68045794745352,11.119874143006234 L 84.50668018015504,11.13554463656074 L 79.79841044569052,17.387120126589263 L 78.46214508930323,14.701157562196535 A 60.35561150812919 60.35561150812919 0 0 1 72.88089369896821,17.134798796863244"/><text text-anchor="middle" pointer-events="none" font-size="8px" fill="#000000" x="49.72460593835872" y="23.49041621039718" font-family="sans-serif">DIRECTED</text></g><g class="relationship" transform="translate(-258.0825124254653 326.71075675791735) rotate(313.62564405645935)"><path class="outline" fill="#A5ABB6" stroke="none" d="M 25 0.5 L 32.058132025047215 0.5 L 32.058132025047215 -0.5 L 25 -0.5 Z M 67.83156952504721 0.5 L 74.88970155009443 0.5 L 74.88970155009443 3.5 L 81.88970155009443 0 L 74.88970155009443 -3.5 L 74.88970155009443 -0.5 L 67.83156952504721 -0.5 Z"/><text text-anchor="middle" pointer-events="none" font-size="8px" fill="#000000" x="49.944850775047215" y="3" font-family="sans-serif">WROTE</text></g><g class="relationship" transform="translate(-258.0825124254653 326.71075675791735) rotate(313.62564405645935)"><path class="outline" fill="#A5ABB6" stroke="none" d="M 21.40063509461097,-12.933012701892217 L 21.90063509461097,-12.06698729810778 A 59.35561150812919 59.35561150812919 0 0 1 25.040150540130817,-13.755965335664008 L 24.593043861684585,-14.650445977203425 A 60.35561150812919 60.35561150812919 0 0 0 21.40063509461097,-12.933012701892217 Z M 75.16952806739289,-16.217641633415532 L 74.77865990071811,-15.297194961261027 A 59.35561150812919 59.35561150812919 0 0 1 78.0167233038408,-13.80583670739896 L 76.68045794745352,-11.119874143006234 L 84.50668018015504,-11.13554463656074 L 79.79841044569052,-17.387120126589263 L 78.46214508930323,-14.701157562196535 A 60.35561150812919 60.35561150812919 0 0 0 75.16952806739289,-16.217641633415532"/><text text-anchor="middle" pointer-events="none" font-size="8px" fill="#000000" x="49.72460593835871" y="-17.49041621039718" font-family="sans-serif">PRODUCED</text></g><g class="relationship" transform="translate(-177.06655775530444 480.53735791528686) rotate(341.19791657619)"><path class="outline" fill="#A5ABB6" stroke="none" d="M 24.018736134675446,-6.953439040707552 L 24.277555179777966,-5.987513214418485 A 105.85523395715776 105.85523395715776 0 0 1 26.887566623022362,-6.651396576862112 L 26.653404001090195,-7.623594018995064 A 106.85523395715776 106.85523395715776 0 0 0 24.018736134675446,-6.953439040707552 Z M 73.37791863542225,-8.367217832384426 L 73.17481194537044,-7.388061219550593 A 105.85523395715776 105.85523395715776 0 0 1 75.8046276933446,-6.807570061561722 L 75.12077708795732,-3.8865516861468286 L 82.73431233687722,-5.698755044893909 L 76.71642850052763,-10.70226122878158 L 76.03257789514035,-7.781242853366687 A 106.85523395715776 106.85523395715776 0 0 0 73.37791863542225,-8.367217832384426"/><text text-anchor="middle" pointer-events="none" font-size="8px" fill="#000000" x="49.982469328116004" y="-7.080976077054686" font-family="sans-serif">DIRECTED</text></g><g class="relationship" transform="translate(-177.06655775530444 480.53735791528686) rotate(341.19791657619)"><path class="outline" fill="#A5ABB6" stroke="none" d="M 24.018736134675446,6.953439040707552 L 24.277555179777966,5.987513214418485 A 105.85523395715776 105.85523395715776 0 0 0 32.297609684427165,7.80577870322486 L 32.1145550035874,8.788881436321788 A 106.85523395715776 106.85523395715776 0 0 1 24.018736134675446,6.953439040707552 Z M 67.88245157165862,9.358129931485863 L 67.73077396804695,8.369699911422416 A 105.85523395715776 105.85523395715776 0 0 0 75.8046276933446,6.807570061561722 L 75.12077708795732,3.8865516861468286 L 82.73431233687722,5.698755044893909 L 76.71642850052763,10.70226122878158 L 76.03257789514035,7.781242853366687 A 106.85523395715776 106.85523395715776 0 0 1 67.88245157165862,9.358129931485863"/><text text-anchor="middle" pointer-events="none" font-size="8px" fill="#000000" x="49.982469328116" y="13.080976077054686" font-family="sans-serif">WROTE</text></g><g class="relationship" transform="translate(-24.263999919287173 538.0781960895665) rotate(240.80264016505402)"><path class="outline" fill="#A5ABB6" stroke="none" d="M 24.018736134675446,-6.953439040707552 L 24.277555179777966,-5.987513214418485 A 102.60159621881206 102.60159621881206 0 0 1 31.49278569893695,-7.644332230852626 L 31.304289443976714,-8.626406139408374 A 103.60159621881206 103.60159621881206 0 0 0 24.018736134675446,-6.953439040707552 Z M 67.06650456812358,-9.203815304742704 L 66.90981101492088,-8.216168034516784 A 102.60159621881206 102.60159621881206 0 0 1 74.17476804400171,-6.79314306515407 L 73.49226504506893,-3.871809524380651 L 81.10496347229515,-5.687524991106492 L 75.08477204257875,-10.688254452851963 L 74.40226904364597,-7.766920912078544 A 103.60159621881206 103.60159621881206 0 0 0 67.06650456812358,-9.203815304742704"/><text text-anchor="middle" pointer-events="none" font-size="8px" fill="#000000" x="49.168362696372625" y="-6.970141857277696" transform="rotate(180 49.168362696372625 -9.970141857277696)" font-family="sans-serif">WROTE</text></g><g class="relationship" transform="translate(-24.263999919287173 538.0781960895665) rotate(240.80264016505402)"><path class="outline" fill="#A5ABB6" stroke="none" d="M 24.018736134675446,6.953439040707552 L 24.277555179777966,5.987513214418485 A 102.60159621881206 102.60159621881206 0 0 0 26.09104175961468,6.4557373376659655 L 25.849897747325187,7.426226680903142 A 103.60159621881206 103.60159621881206 0 0 1 24.018736134675446,6.953439040707552 Z M 72.55679882065846,8.180346431888495 L 72.34711096569866,7.202578052627658 A 102.60159621881206 102.60159621881206 0 0 0 74.17476804400171,6.79314306515407 L 73.49226504506893,3.871809524380651 L 81.10496347229515,5.687524991106492 L 75.08477204257875,10.688254452851963 L 74.40226904364597,7.766920912078544 A 103.60159621881206 103.60159621881206 0 0 1 72.55679882065846,8.180346431888495"/><text text-anchor="middle" pointer-events="none" font-size="8px" fill="#000000" x="49.168362696372625" y="12.970141857277696" transform="rotate(180 49.168362696372625 9.970141857277696)" font-family="sans-serif">DIRECTED</text></g><g class="relationship" transform="translate(-27.765943419008906 147.42867774412585) rotate(438.8706759370866)"><path class="outline" fill="#A5ABB6" stroke="none" d="M 21.40063509461097,12.933012701892217 L 21.90063509461097,12.06698729810778 A 57.729290811836954 57.729290811836954 0 0 0 26.487248028617422,14.44798146034563 L 26.066698388556123,15.355250990443665 A 58.729290811836954 58.729290811836954 0 0 1 21.40063509461097,12.933012701892217 Z M 72.06973043972326,16.80083222658677 L 71.70697363396766,15.868948381959129 A 57.729290811836954 57.729290811836954 0 0 0 76.43402870391294,13.780623270126599 L 75.10010889427687,11.093495074178275 L 82.92631446273171,11.115998413633841 L 78.21258845009436,17.363460864724363 L 76.87866864045829,14.67633266877604 A 58.729290811836954 58.729290811836954 0 0 1 72.06973043972326,16.80083222658677"/><text text-anchor="middle" pointer-events="none" font-size="8px" fill="#000000" x="48.936408834984505" y="23.27251794149297" font-family="sans-serif">DIRECTED</text></g><g class="relationship" transform="translate(-27.765943419008906 147.42867774412585) rotate(438.8706759370866)"><path class="outline" fill="#A5ABB6" stroke="none" d="M 25 0.5 L 31.272805964483858 0.5 L 31.272805964483858 -0.5 L 25 -0.5 Z M 67.04624346448387 0.5 L 73.31904942896772 0.5 L 73.31904942896772 3.5 L 80.31904942896772 0 L 73.31904942896772 -3.5 L 73.31904942896772 -0.5 L 67.04624346448387 -0.5 Z"/><text text-anchor="middle" pointer-events="none" font-size="8px" fill="#000000" x="49.15952471448386" y="3" font-family="sans-serif">WROTE</text></g><g class="relationship" transform="translate(-27.765943419008906 147.42867774412585) rotate(438.8706759370866)"><path class="outline" fill="#A5ABB6" stroke="none" d="M 21.40063509461097,-12.933012701892217 L 21.90063509461097,-12.06698729810778 A 57.729290811836954 57.729290811836954 0 0 1 24.309791636386972,-13.382559338942599 L 23.851523597890335,-14.27137338298806 A 58.729290811836954 58.729290811836954 0 0 0 21.40063509461097,-12.933012701892217 Z M 74.34858632034279,-15.858173276323939 L 73.947026800488,-14.942340348321238 A 57.729290811836954 57.729290811836954 0 0 1 76.43402870391294,-13.780623270126599 L 75.10010889427687,-11.093495074178275 L 82.92631446273171,-11.115998413633841 L 78.21258845009436,-17.363460864724363 L 76.87866864045829,-14.67633266877604 A 58.729290811836954 58.729290811836954 0 0 0 74.34858632034279,-15.858173276323939"/><text text-anchor="middle" pointer-events="none" font-size="8px" fill="#000000" x="48.93640883498449" y="-17.27251794149297" font-family="sans-serif">PRODUCED</text></g></g><g class="layer nodes"><g class="node" transform="translate(220.93107205309775,573.830423422497)"><circle class="outline" cx="0" cy="0" r="25" fill="#F79767" stroke="#f36924" stroke-width="2px"/><text text-anchor="middle" pointer-events="none" font-family="sans-serif" dy="1.5625" font-size="25" fill="#FFFFFF"/><text text-anchor="middle" pointer-events="none" font-family="sans-serif" dy="1.5625" font-size="25" fill="#FFFFFF"/><text text-anchor="middle" pointer-events="none" x="0" y="0" font-size="10px" fill="#FFFFFF" font-family="sans-serif"> Cameron</text><text text-anchor="middle" pointer-events="none" x="0" y="10" font-size="10px" fill="#FFFFFF" font-family="sans-serif"> Crowe</text></g><g class="node" transform="translate(143.66895252569847,506.3552991906768)"><circle class="outline" cx="0" cy="0" r="25" fill="#57C7E3" stroke="#23b3d7" stroke-width="2px"/><text text-anchor="middle" pointer-events="none" font-family="sans-serif" dy="1.5625" font-size="25" fill="#2A2C34"/><text text-anchor="middle" pointer-events="none" font-family="sans-serif" dy="1.5625" font-size="25" fill="#2A2C34"/><text text-anchor="middle" pointer-events="none" x="0" y="0" font-size="10px" fill="#2A2C34" font-family="sans-serif"> Jerry</text><text text-anchor="middle" pointer-events="none" x="0" y="10" font-size="10px" fill="#2A2C34" font-family="sans-serif"> Maguire</text></g><g class="node" transform="translate(173.6024302570529,322.30724842298713)"><circle class="outline" cx="0" cy="0" r="25" fill="#F79767" stroke="#f36924" stroke-width="2px"/><text text-anchor="middle" pointer-events="none" font-family="sans-serif" dy="1.5625" font-size="25" fill="#FFFFFF"/><text text-anchor="middle" pointer-events="none" font-family="sans-serif" dy="1.5625" font-size="25" fill="#FFFFFF"/><text text-anchor="middle" pointer-events="none" x="0" y="0" font-size="10px" fill="#FFFFFF" font-family="sans-serif"> Lilly</text><text text-anchor="middle" pointer-events="none" x="0" y="10" font-size="10px" fill="#FFFFFF" font-family="sans-serif"> Wacho…</text></g><g class="node" transform="translate(183.43782017811938,215.32434797191965)"><circle class="outline" cx="0" cy="0" r="25" fill="#57C7E3" stroke="#23b3d7" stroke-width="2px"/><text text-anchor="middle" pointer-events="none" font-family="sans-serif" dy="1.5625" font-size="25" fill="#2A2C34"/><text text-anchor="middle" pointer-events="none" font-family="sans-serif" dy="1.5625" font-size="25" fill="#2A2C34"/><text text-anchor="middle" pointer-events="none" x="0" y="0" font-size="10px" fill="#2A2C34" font-family="sans-serif"> Speed</text><text text-anchor="middle" pointer-events="none" x="0" y="10" font-size="10px" fill="#2A2C34" font-family="sans-serif"> Racer</text></g><g class="node" transform="translate(288.8614637508696,232.66920199788868)"><circle class="outline" cx="0" cy="0" r="25" fill="#F79767" stroke="#f36924" stroke-width="2px"/><text text-anchor="middle" pointer-events="none" font-family="sans-serif" dy="1.5625" font-size="25" fill="#FFFFFF"/><text text-anchor="middle" pointer-events="none" font-family="sans-serif" dy="1.5625" font-size="25" fill="#FFFFFF"/><text text-anchor="middle" pointer-events="none" x="0" y="0" font-size="10px" fill="#FFFFFF" font-family="sans-serif"> Lana</text><text text-anchor="middle" pointer-events="none" x="0" y="10" font-size="10px" fill="#FFFFFF" font-family="sans-serif"> Wacho…</text></g><g class="node" transform="translate(373.33717213244745,409.0078519869648)"><circle class="outline" cx="0" cy="0" r="25" fill="#F79767" stroke="#f36924" stroke-width="2px"/><text text-anchor="middle" pointer-events="none" font-family="sans-serif" dy="1.5625" font-size="25" fill="#FFFFFF"/><text text-anchor="middle" pointer-events="none" font-family="sans-serif" dy="1.5625" font-size="25" fill="#FFFFFF"/><text text-anchor="middle" pointer-events="none" x="0" y="0" font-size="10px" fill="#FFFFFF" font-family="sans-serif"> Nancy</text><text text-anchor="middle" pointer-events="none" x="0" y="10" font-size="10px" fill="#FFFFFF" font-family="sans-serif"> Meyers</text></g><g class="node" transform="translate(461.64159043431795,459.68885494643587)"><circle class="outline" cx="0" cy="0" r="25" fill="#57C7E3" stroke="#23b3d7" stroke-width="2px"/><text text-anchor="middle" pointer-events="none" font-family="sans-serif" dy="1.5625" font-size="25" fill="#2A2C34"/><text text-anchor="middle" pointer-events="none" x="0" y="5" font-size="10px" fill="#2A2C34" font-family="sans-serif"> Somethi…</text></g><g class="node" transform="translate(586.6804141695035,177.66907156507156)"><circle class="outline" cx="0" cy="0" r="25" fill="#F79767" stroke="#f36924" stroke-width="2px"/><text text-anchor="middle" pointer-events="none" font-family="sans-serif" dy="1.5625" font-size="25" fill="#FFFFFF"/><text text-anchor="middle" pointer-events="none" font-family="sans-serif" dy="1.5625" font-size="25" fill="#FFFFFF"/><text text-anchor="middle" pointer-events="none" x="0" y="0" font-size="10px" fill="#FFFFFF" font-family="sans-serif"> Cameron</text><text text-anchor="middle" pointer-events="none" x="0" y="10" font-size="10px" fill="#FFFFFF" font-family="sans-serif"> Crowe</text></g><g class="node" transform="translate(502.68907046376097,237.9172245889005)"><circle class="outline" cx="0" cy="0" r="25" fill="#57C7E3" stroke="#23b3d7" stroke-width="2px"/><text text-anchor="middle" pointer-events="none" font-family="sans-serif" dy="1.5625" font-size="25" fill="#2A2C34"/><text text-anchor="middle" pointer-events="none" font-family="sans-serif" dy="1.5625" font-size="25" fill="#2A2C34"/><text text-anchor="middle" pointer-events="none" x="0" y="0" font-size="10px" fill="#2A2C34" font-family="sans-serif"> Jerry</text><text text-anchor="middle" pointer-events="none" x="0" y="10" font-size="10px" fill="#2A2C34" font-family="sans-serif"> Maguire</text></g><g class="node" transform="translate(512.7435619223261,4.958993406668437)"><circle class="outline" cx="0" cy="0" r="25" fill="#F79767" stroke="#f36924" stroke-width="2px"/><text text-anchor="middle" pointer-events="none" font-family="sans-serif" dy="1.5625" font-size="25" fill="#FFFFFF"/><text text-anchor="middle" pointer-events="none" font-family="sans-serif" dy="1.5625" font-size="25" fill="#FFFFFF"/><text text-anchor="middle" pointer-events="none" x="0" y="0" font-size="10px" fill="#FFFFFF" font-family="sans-serif"> Lilly</text><text text-anchor="middle" pointer-events="none" x="0" y="10" font-size="10px" fill="#FFFFFF" font-family="sans-serif"> Wacho…</text></g><g class="node" transform="translate(408.20269585329305,-12.822726753897774)"><circle class="outline" cx="0" cy="0" r="25" fill="#57C7E3" stroke="#23b3d7" stroke-width="2px"/><text text-anchor="middle" pointer-events="none" font-family="sans-serif" dy="1.5625" font-size="25" fill="#2A2C34"/><text text-anchor="middle" pointer-events="none" font-family="sans-serif" dy="1.5625" font-size="25" fill="#2A2C34"/><text text-anchor="middle" pointer-events="none" x="0" y="0" font-size="10px" fill="#2A2C34" font-family="sans-serif"> Speed</text><text text-anchor="middle" pointer-events="none" x="0" y="10" font-size="10px" fill="#2A2C34" font-family="sans-serif"> Racer</text></g><g class="node" transform="translate(326.74396128683503,51.45410971845197)"><circle class="outline" cx="0" cy="0" r="25" fill="#F79767" stroke="#f36924" stroke-width="2px"/><text text-anchor="middle" pointer-events="none" font-family="sans-serif" dy="1.5625" font-size="25" fill="#FFFFFF"/><text text-anchor="middle" pointer-events="none" font-family="sans-serif" dy="1.5625" font-size="25" fill="#FFFFFF"/><text text-anchor="middle" pointer-events="none" x="0" y="0" font-size="10px" fill="#FFFFFF" font-family="sans-serif"> Lana</text><text text-anchor="middle" pointer-events="none" x="0" y="10" font-size="10px" fill="#FFFFFF" font-family="sans-serif"> Wacho…</text></g><g class="node" transform="translate(516.1068948637075,-177.4761368143824)"><circle class="outline" cx="0" cy="0" r="25" fill="#F79767" stroke="#f36924" stroke-width="2px"/><text text-anchor="middle" pointer-events="none" font-family="sans-serif" dy="1.5625" font-size="25" fill="#FFFFFF"/><text text-anchor="middle" pointer-events="none" font-family="sans-serif" dy="1.5625" font-size="25" fill="#FFFFFF"/><text text-anchor="middle" pointer-events="none" x="0" y="0" font-size="10px" fill="#FFFFFF" font-family="sans-serif"> Nancy</text><text text-anchor="middle" pointer-events="none" x="0" y="10" font-size="10px" fill="#FFFFFF" font-family="sans-serif"> Meyers</text></g><g class="node" transform="translate(415.8333201701504,-209.82145892740257)"><circle class="outline" cx="0" cy="0" r="25" fill="#57C7E3" stroke="#23b3d7" stroke-width="2px"/><text text-anchor="middle" pointer-events="none" font-family="sans-serif" dy="1.5625" font-size="25" fill="#2A2C34"/><text text-anchor="middle" pointer-events="none" x="0" y="5" font-size="10px" fill="#2A2C34" font-family="sans-serif"> Somethi…</text></g><g class="node" transform="translate(218.6419742694168,-373.87352440890436)"><circle class="outline" cx="0" cy="0" r="25" fill="#F79767" stroke="#f36924" stroke-width="2px"/><text text-anchor="middle" pointer-events="none" font-family="sans-serif" dy="1.5625" font-size="25" fill="#FFFFFF"/><text text-anchor="middle" pointer-events="none" font-family="sans-serif" dy="1.5625" font-size="25" fill="#FFFFFF"/><text text-anchor="middle" pointer-events="none" x="0" y="0" font-size="10px" fill="#FFFFFF" font-family="sans-serif"> Cameron</text><text text-anchor="middle" pointer-events="none" x="0" y="10" font-size="10px" fill="#FFFFFF" font-family="sans-serif"> Crowe</text></g><g class="node" transform="translate(283.4993401076979,-293.4229412627185)"><circle class="outline" cx="0" cy="0" r="25" fill="#57C7E3" stroke="#23b3d7" stroke-width="2px"/><text text-anchor="middle" pointer-events="none" font-family="sans-serif" dy="1.5625" font-size="25" fill="#2A2C34"/><text text-anchor="middle" pointer-events="none" font-family="sans-serif" dy="1.5625" font-size="25" fill="#2A2C34"/><text text-anchor="middle" pointer-events="none" x="0" y="0" font-size="10px" fill="#2A2C34" font-family="sans-serif"> Jerry</text><text text-anchor="middle" pointer-events="none" x="0" y="10" font-size="10px" fill="#2A2C34" font-family="sans-serif"> Maguire</text></g><g class="node" transform="translate(25.389921386942625,-19.831238486746404)"><circle class="outline" cx="0" cy="0" r="25" fill="#F79767" stroke="#f36924" stroke-width="2px"/><text text-anchor="middle" pointer-events="none" font-family="sans-serif" dy="1.5625" font-size="25" fill="#FFFFFF"/><text text-anchor="middle" pointer-events="none" font-family="sans-serif" dy="1.5625" font-size="25" fill="#FFFFFF"/><text text-anchor="middle" pointer-events="none" x="0" y="0" font-size="10px" fill="#FFFFFF" font-family="sans-serif"> Lilly</text><text text-anchor="middle" pointer-events="none" x="0" y="10" font-size="10px" fill="#FFFFFF" font-family="sans-serif"> Wacho…</text></g><g class="node" transform="translate(131.1417231675775,-8.373071793575976)"><circle class="outline" cx="0" cy="0" r="25" fill="#57C7E3" stroke="#23b3d7" stroke-width="2px"/><text text-anchor="middle" pointer-events="none" font-family="sans-serif" dy="1.5625" font-size="25" fill="#2A2C34"/><text text-anchor="middle" pointer-events="none" font-family="sans-serif" dy="1.5625" font-size="25" fill="#2A2C34"/><text text-anchor="middle" pointer-events="none" x="0" y="0" font-size="10px" fill="#2A2C34" font-family="sans-serif"> Speed</text><text text-anchor="middle" pointer-events="none" x="0" y="10" font-size="10px" fill="#2A2C34" font-family="sans-serif"> Racer</text></g><g class="node" transform="translate(180.22870107146784,-101.65982000297055)"><circle class="outline" cx="0" cy="0" r="25" fill="#F79767" stroke="#f36924" stroke-width="2px"/><text text-anchor="middle" pointer-events="none" font-family="sans-serif" dy="1.5625" font-size="25" fill="#FFFFFF"/><text text-anchor="middle" pointer-events="none" font-family="sans-serif" dy="1.5625" font-size="25" fill="#FFFFFF"/><text text-anchor="middle" pointer-events="none" x="0" y="0" font-size="10px" fill="#FFFFFF" font-family="sans-serif"> Lana</text><text text-anchor="middle" pointer-events="none" x="0" y="10" font-size="10px" fill="#FFFFFF" font-family="sans-serif"> Wacho…</text></g><g class="node" transform="translate(34.62068059467616,-237.13831088752704)"><circle class="outline" cx="0" cy="0" r="25" fill="#F79767" stroke="#f36924" stroke-width="2px"/><text text-anchor="middle" pointer-events="none" font-family="sans-serif" dy="1.5625" font-size="25" fill="#FFFFFF"/><text text-anchor="middle" pointer-events="none" font-family="sans-serif" dy="1.5625" font-size="25" fill="#FFFFFF"/><text text-anchor="middle" pointer-events="none" x="0" y="0" font-size="10px" fill="#FFFFFF" font-family="sans-serif"> Nancy</text><text text-anchor="middle" pointer-events="none" x="0" y="10" font-size="10px" fill="#FFFFFF" font-family="sans-serif"> Meyers</text></g><g class="node" transform="translate(50.55914360598482,-341.8903038767989)"><circle class="outline" cx="0" cy="0" r="25" fill="#57C7E3" stroke="#23b3d7" stroke-width="2px"/><text text-anchor="middle" pointer-events="none" font-family="sans-serif" dy="1.5625" font-size="25" fill="#2A2C34"/><text text-anchor="middle" pointer-events="none" x="0" y="5" font-size="10px" fill="#2A2C34" font-family="sans-serif"> Somethi…</text></g><g class="node" transform="translate(-114.73531092428308,-313.75224661378934)"><circle class="outline" cx="0" cy="0" r="25" fill="#F79767" stroke="#f36924" stroke-width="2px"/><text text-anchor="middle" pointer-events="none" font-family="sans-serif" dy="1.5625" font-size="25" fill="#FFFFFF"/><text text-anchor="middle" pointer-events="none" font-family="sans-serif" dy="1.5625" font-size="25" fill="#FFFFFF"/><text text-anchor="middle" pointer-events="none" x="0" y="0" font-size="10px" fill="#FFFFFF" font-family="sans-serif"> Cameron</text><text text-anchor="middle" pointer-events="none" x="0" y="10" font-size="10px" fill="#FFFFFF" font-family="sans-serif"> Crowe</text></g><g class="node" transform="translate(-205.67584042359925,-266.5248630823715)"><circle class="outline" cx="0" cy="0" r="25" fill="#57C7E3" stroke="#23b3d7" stroke-width="2px"/><text text-anchor="middle" pointer-events="none" font-family="sans-serif" dy="1.5625" font-size="25" fill="#2A2C34"/><text text-anchor="middle" pointer-events="none" font-family="sans-serif" dy="1.5625" font-size="25" fill="#2A2C34"/><text text-anchor="middle" pointer-events="none" x="0" y="0" font-size="10px" fill="#2A2C34" font-family="sans-serif"> Jerry</text><text text-anchor="middle" pointer-events="none" x="0" y="10" font-size="10px" fill="#2A2C34" font-family="sans-serif"> Maguire</text></g><g class="node" transform="translate(-238.83837567462479,-122.29572754153452)"><circle class="outline" cx="0" cy="0" r="25" fill="#F79767" stroke="#f36924" stroke-width="2px"/><text text-anchor="middle" pointer-events="none" font-family="sans-serif" dy="1.5625" font-size="25" fill="#FFFFFF"/><text text-anchor="middle" pointer-events="none" font-family="sans-serif" dy="1.5625" font-size="25" fill="#FFFFFF"/><text text-anchor="middle" pointer-events="none" x="0" y="0" font-size="10px" fill="#FFFFFF" font-family="sans-serif"> Lilly</text><text text-anchor="middle" pointer-events="none" x="0" y="10" font-size="10px" fill="#FFFFFF" font-family="sans-serif"> Wacho…</text></g><g class="node" transform="translate(-339.5184959154193,-82.74907301570168)"><circle class="outline" cx="0" cy="0" r="25" fill="#57C7E3" stroke="#23b3d7" stroke-width="2px"/><text text-anchor="middle" pointer-events="none" font-family="sans-serif" dy="1.5625" font-size="25" fill="#2A2C34"/><text text-anchor="middle" pointer-events="none" font-family="sans-serif" dy="1.5625" font-size="25" fill="#2A2C34"/><text text-anchor="middle" pointer-events="none" x="0" y="0" font-size="10px" fill="#2A2C34" font-family="sans-serif"> Speed</text><text text-anchor="middle" pointer-events="none" x="0" y="10" font-size="10px" fill="#2A2C34" font-family="sans-serif"> Racer</text></g><g class="node" transform="translate(-259.5835173357946,-8.595489276517835)"><circle class="outline" cx="0" cy="0" r="25" fill="#F79767" stroke="#f36924" stroke-width="2px"/><text text-anchor="middle" pointer-events="none" font-family="sans-serif" dy="1.5625" font-size="25" fill="#FFFFFF"/><text text-anchor="middle" pointer-events="none" font-family="sans-serif" dy="1.5625" font-size="25" fill="#FFFFFF"/><text text-anchor="middle" pointer-events="none" x="0" y="0" font-size="10px" fill="#FFFFFF" font-family="sans-serif"> Lana</text><text text-anchor="middle" pointer-events="none" x="0" y="10" font-size="10px" fill="#FFFFFF" font-family="sans-serif"> Wacho…</text></g><g class="node" transform="translate(-398.28092143190315,184.31759666474196)"><circle class="outline" cx="0" cy="0" r="25" fill="#F79767" stroke="#f36924" stroke-width="2px"/><text text-anchor="middle" pointer-events="none" font-family="sans-serif" dy="1.5625" font-size="25" fill="#FFFFFF"/><text text-anchor="middle" pointer-events="none" font-family="sans-serif" dy="1.5625" font-size="25" fill="#FFFFFF"/><text text-anchor="middle" pointer-events="none" x="0" y="0" font-size="10px" fill="#FFFFFF" font-family="sans-serif"> Nancy</text><text text-anchor="middle" pointer-events="none" x="0" y="10" font-size="10px" fill="#FFFFFF" font-family="sans-serif"> Meyers</text></g><g class="node" transform="translate(-308.87266446861327,130.0340504772438)"><circle class="outline" cx="0" cy="0" r="25" fill="#57C7E3" stroke="#23b3d7" stroke-width="2px"/><text text-anchor="middle" pointer-events="none" font-family="sans-serif" dy="1.5625" font-size="25" fill="#2A2C34"/><text text-anchor="middle" pointer-events="none" x="0" y="5" font-size="10px" fill="#2A2C34" font-family="sans-serif"> Somethi…</text></g><g class="node" transform="translate(-258.0825124254653,326.71075675791735)"><circle class="outline" cx="0" cy="0" r="25" fill="#F79767" stroke="#f36924" stroke-width="2px"/><text text-anchor="middle" pointer-events="none" font-family="sans-serif" dy="1.5625" font-size="25" fill="#FFFFFF"/><text text-anchor="middle" pointer-events="none" font-family="sans-serif" dy="1.5625" font-size="25" fill="#FFFFFF"/><text text-anchor="middle" pointer-events="none" x="0" y="0" font-size="10px" fill="#FFFFFF" font-family="sans-serif"> Cameron</text><text text-anchor="middle" pointer-events="none" x="0" y="10" font-size="10px" fill="#FFFFFF" font-family="sans-serif"> Crowe</text></g><g class="node" transform="translate(-184.33464751409807,249.33724243626472)"><circle class="outline" cx="0" cy="0" r="25" fill="#57C7E3" stroke="#23b3d7" stroke-width="2px"/><text text-anchor="middle" pointer-events="none" font-family="sans-serif" dy="1.5625" font-size="25" fill="#2A2C34"/><text text-anchor="middle" pointer-events="none" font-family="sans-serif" dy="1.5625" font-size="25" fill="#2A2C34"/><text text-anchor="middle" pointer-events="none" x="0" y="0" font-size="10px" fill="#2A2C34" font-family="sans-serif"> Jerry</text><text text-anchor="middle" pointer-events="none" x="0" y="10" font-size="10px" fill="#2A2C34" font-family="sans-serif"> Maguire</text></g><g class="node" transform="translate(-177.06655775530444,480.53735791528686)"><circle class="outline" cx="0" cy="0" r="25" fill="#F79767" stroke="#f36924" stroke-width="2px"/><text text-anchor="middle" pointer-events="none" font-family="sans-serif" dy="1.5625" font-size="25" fill="#FFFFFF"/><text text-anchor="middle" pointer-events="none" font-family="sans-serif" dy="1.5625" font-size="25" fill="#FFFFFF"/><text text-anchor="middle" pointer-events="none" x="0" y="0" font-size="10px" fill="#FFFFFF" font-family="sans-serif"> Lilly</text><text text-anchor="middle" pointer-events="none" x="0" y="10" font-size="10px" fill="#FFFFFF" font-family="sans-serif"> Wacho…</text></g><g class="node" transform="translate(-75.70427132662253,446.026707931555)"><circle class="outline" cx="0" cy="0" r="25" fill="#57C7E3" stroke="#23b3d7" stroke-width="2px"/><text text-anchor="middle" pointer-events="none" font-family="sans-serif" dy="1.5625" font-size="25" fill="#2A2C34"/><text text-anchor="middle" pointer-events="none" font-family="sans-serif" dy="1.5625" font-size="25" fill="#2A2C34"/><text text-anchor="middle" pointer-events="none" x="0" y="0" font-size="10px" fill="#2A2C34" font-family="sans-serif"> Speed</text><text text-anchor="middle" pointer-events="none" x="0" y="10" font-size="10px" fill="#2A2C34" font-family="sans-serif"> Racer</text></g><g class="node" transform="translate(-24.263999919287173,538.0781960895665)"><circle class="outline" cx="0" cy="0" r="25" fill="#F79767" stroke="#f36924" stroke-width="2px"/><text text-anchor="middle" pointer-events="none" font-family="sans-serif" dy="1.5625" font-size="25" fill="#FFFFFF"/><text text-anchor="middle" pointer-events="none" font-family="sans-serif" dy="1.5625" font-size="25" fill="#FFFFFF"/><text text-anchor="middle" pointer-events="none" x="0" y="0" font-size="10px" fill="#FFFFFF" font-family="sans-serif"> Lana</text><text text-anchor="middle" pointer-events="none" x="0" y="10" font-size="10px" fill="#FFFFFF" font-family="sans-serif"> Wacho…</text></g><g class="node" transform="translate(-27.765943419008906,147.42867774412585)"><circle class="outline" cx="0" cy="0" r="25" fill="#F79767" stroke="#f36924" stroke-width="2px"/><text text-anchor="middle" pointer-events="none" font-family="sans-serif" dy="1.5625" font-size="25" fill="#FFFFFF"/><text text-anchor="middle" pointer-events="none" font-family="sans-serif" dy="1.5625" font-size="25" fill="#FFFFFF"/><text text-anchor="middle" pointer-events="none" x="0" y="0" font-size="10px" fill="#FFFFFF" font-family="sans-serif"> Nancy</text><text text-anchor="middle" pointer-events="none" x="0" y="10" font-size="10px" fill="#FFFFFF" font-family="sans-serif"> Meyers</text></g><g class="node" transform="translate(-7.436821497303806,250.7670973880985)"><circle class="outline" cx="0" cy="0" r="25" fill="#57C7E3" stroke="#23b3d7" stroke-width="2px"/><text text-anchor="middle" pointer-events="none" font-family="sans-serif" dy="1.5625" font-size="25" fill="#2A2C34"/><text text-anchor="middle" pointer-events="none" x="0" y="5" font-size="10px" fill="#2A2C34" font-family="sans-serif"> Somethi…</text></g></g></svg>